<svg width="1440" height="35" viewBox="0 0 1440 35" fill="none" xmlns="http://www.w3.org/2000/svg">
<rect x="666.5" y="0.5" width="108" height="34" fill="#F9F9F9" stroke="#CACACA"/>
<rect x="774" y="8" width="21" height="5" fill="#CACACA"/>
<rect x="774" y="15" width="21" height="5" fill="#CACACA"/>
<rect x="774" y="22" width="21" height="5" fill="#CACACA"/>
<rect x="645" y="8" width="21" height="5" fill="#CACACA"/>
<rect x="645" y="15" width="21" height="5" fill="#CACACA"/>
<rect x="645" y="22" width="21" height="5" fill="#CACACA"/>
<path d="M653 11C140.183 11 3.32635 11 -1 11" stroke="#F5F2F2"/>
<path d="M653 18C140.183 18 3.32635 18 -1 18" stroke="#F5F2F2"/>
<path d="M653 25C140.183 25 3.32635 25 -1 25" stroke="#F5F2F2"/>
<path d="M1446 10C927.694 10 789.373 10 785 10" stroke="#F5F2F2"/>
<path d="M1446 18C927.694 18 789.373 18 785 18" stroke="#F5F2F2"/>
<path d="M1446 25C927.694 25 789.373 25 785 25" stroke="#F5F2F2"/>
</svg>
