<svg width="109" height="48" viewBox="0 0 109 48" fill="none" xmlns="http://www.w3.org/2000/svg">
<rect x="0.5" y="0.500061" width="108" height="34" rx="4.5" fill="#F9F9F9" stroke="black"/>
<path d="M21 12C21 14.2091 19.2091 16 17 16C14.7909 16 13 14.2091 13 12C13 9.79086 14.7909 8 17 8C19.2091 8 21 9.79086 21 12Z" fill="black"/>
<path d="M95 12C95 14.2091 93.2091 16 91 16C88.7909 16 87 14.2091 87 12C87 9.79086 88.7909 8 91 8C93.2091 8 95 9.79086 95 12Z" fill="black"/>
<rect x="45.5" y="38.5" width="16" height="9" fill="black" stroke="black"/>
<rect x="13" y="19" width="82" height="9" fill="black"/>
</svg>
