<svg width="1440" height="49" viewBox="0 0 1440 49" fill="none" xmlns="http://www.w3.org/2000/svg">
<path d="M1446 10C927.694 10 789.373 10 785 10" stroke="#F5F2F2"/>
<path d="M1446 18C927.694 18 789.373 18 785 18" stroke="#F5F2F2"/>
<path d="M1446 25C927.694 25 789.373 25 785 25" stroke="#F5F2F2"/>
<rect x="774" y="8.00003" width="21" height="5" fill="black"/>
<rect x="774" y="15" width="21" height="5" fill="black"/>
<rect x="774" y="22" width="21" height="5" fill="black"/>
<rect x="666.5" y="0.500061" width="108" height="34" rx="4.5" fill="#F9F9F9" stroke="black"/>
<path d="M-0.5 23.5L664.5 24.5" stroke="#F5F2F2"/>
<path d="M0 17L665 18" stroke="#F5F2F2"/>
<path d="M0 10L665 11" stroke="#F5F2F2"/>
<rect x="645" y="8.00003" width="21" height="5" fill="black"/>
<rect x="645" y="15" width="21" height="5" fill="black"/>
<rect x="645" y="22" width="21" height="5" fill="black"/>
<circle cx="680" cy="12" r="4" fill="black"/>
<circle cx="759" cy="12" r="4" fill="black"/>
<rect x="711.5" y="39.5" width="16" height="9" fill="#D9D9D9" stroke="black"/>
</svg>
