<svg width="1440" height="35" viewBox="0 0 1440 35" fill="none" xmlns="http://www.w3.org/2000/svg">
<rect x="461.5" y="0.5" width="108" height="34" fill="#F9F9F9" stroke="#CACACA"/>
<rect x="569" y="8" width="21" height="5" fill="#CACACA"/>
<rect x="569" y="15" width="21" height="5" fill="#CACACA"/>
<rect x="569" y="22" width="21" height="5" fill="#CACACA"/>
<rect x="440" y="8" width="21" height="5" fill="#CACACA"/>
<rect x="440" y="15" width="21" height="5" fill="#CACACA"/>
<rect x="440" y="22" width="21" height="5" fill="#CACACA"/>
<path d="M443.5 10.5C87.9 10.5 -7 10.5 -10 10.5" stroke="#F5F2F2"/>
<path d="M1475 10C777.13 10 590.888 10 585 10" stroke="#F5F2F2"/>
<path d="M443.5 18C87.9 18 -7 18 -10 18" stroke="#F5F2F2"/>
<path d="M1475 18C777.13 18 590.888 18 585 18" stroke="#F5F2F2"/>
<path d="M443.5 25C87.9 25 -7 25 -10 25" stroke="#F5F2F2"/>
<path d="M1475 25C777.13 25 590.888 25 585 25" stroke="#F5F2F2"/>
</svg>
